<?xml version="1.0" standalone="no"?><!DOCTYPE svg PUBLIC "-//W3C//DTD SVG 1.1//EN" "http://www.w3.org/Graphics/SVG/1.1/DTD/svg11.dtd"><svg t="1511523307676" class="icon" style="" viewBox="0 0 1024 1024" version="1.1" xmlns="http://www.w3.org/2000/svg" p-id="643" xmlns:xlink="http://www.w3.org/1999/xlink" width="200" height="200"><defs><style type="text/css"></style></defs><path d="M512 512m-512 0a512 512 0 1 0 1024 0 512 512 0 1 0-1024 0Z" fill="#A5D06E" p-id="644"></path><path d="M617.608 187.552l-25.576 52.648-66.128 342.488-157.368 221.032-8.48 26.376 193.92 192.048c238.88-19.408 431.344-202.672 464.776-437.328L617.608 187.552z" fill="#90B753" p-id="645"></path><path d="M370.496 440.984l67.288 149.976s13.848 33.168-23.8 60.376a690.184 690.184 0 0 1-20.104 14c-1.48 29.312 17.104 59.408 30.808 84.424 13.048 23.768 34.704 50.856 59.168 66.688 33.28-14.424 74.256-32.512 111.96-49.28-3.048-6.784-2.632-16.888-3.488-23.296-1.848-13.784-4.728-27.872-5.792-41.784-1.92-25.064 12.504-48.16 26.344-68 24.504-35.048 58.248-60.112 97.296-71.752-37.6-91.568-92.768-224-92.768-224L370.496 440.984z" fill="#2B414D" p-id="646"></path><path d="M424.688 749.752c-13.704-25.016-32.28-55.112-30.808-84.424-28.424 19.112-50.12 30.856-50.12 30.856s-24.016 15.064-14.904 50.232c9.096 35.184 27.296 73.704 27.296 73.704s16.64 41.888 74.568 18.768c11.976-4.8 30.84-12.8 53.136-22.456-24.464-15.824-46.12-42.92-59.168-66.68zM612.888 634.08c-13.84 19.84-28.264 42.936-26.344 68 1.064 13.904 3.936 28 5.792 41.784 0.848 6.408 0.44 16.512 3.488 23.296 58.976-26.216 109.76-49.096 109.76-49.096s57.928-23.128 32.984-85.968a7293.416 7293.416 0 0 0-28.376-69.768c-39.048 11.64-72.792 36.704-97.304 71.752z" fill="#E3E5E5" p-id="647"></path><path d="M659.168 288.248c7.616 18.752-1.48 40.336-20.224 47.96l-273.608 111.28c-18.76 7.624-40.344-1.464-47.968-20.224l-35.456-87.176a36.904 36.904 0 0 1 20.24-47.96l273.584-111.296c18.768-7.616 40.344 1.48 47.96 20.232l35.472 87.184z" fill="#E3E7E7" p-id="648"></path><path d="M412.52 501.168a7.216 7.216 0 0 1-9.352-9.512l22.48-53.176c1.496-3.528 5.936-5.344 9.464-3.84l53.184 22.496a7.232 7.232 0 1 1-5.64 13.296l-46.512-19.672-19.696 46.528a7.056 7.056 0 0 1-3.928 3.88z" fill="#EDC55D" p-id="649"></path><path d="M488.208 470.48a7.224 7.224 0 0 1-9.376-9.512l22.488-53.184c1.488-3.52 5.928-5.336 9.448-3.832l53.184 22.488a7.216 7.216 0 1 1-5.632 13.304l-46.512-19.672-19.672 46.536a7.192 7.192 0 0 1-3.928 3.872z" fill="#EDC55D" p-id="650"></path><path d="M563.872 439.792a7.24 7.24 0 0 1-9.384-9.512l22.504-53.176a7.408 7.408 0 0 1 9.448-3.832l53.192 22.48a7.232 7.232 0 0 1-5.632 13.32l-46.512-19.68-19.68 46.512a7.256 7.256 0 0 1-3.936 3.888z" fill="#EDC55D" p-id="651"></path><path d="M429.504 543a7.2 7.2 0 0 1-9.352-9.52l22.472-53.16a7.44 7.44 0 0 1 9.48-3.848l53.16 22.504a7.232 7.232 0 0 1-5.632 13.312l-46.512-19.68-19.656 46.512a7.256 7.256 0 0 1-3.96 3.88z" fill="#E1574C" p-id="652"></path><path d="M505.176 512.336a7.232 7.232 0 0 1-9.384-9.52l22.504-53.184a7.424 7.424 0 0 1 9.456-3.84l53.184 22.496c3.68 1.552 5.392 5.792 3.84 9.456a7.24 7.24 0 0 1-9.48 3.856l-46.52-19.672-19.68 46.512a7.2 7.2 0 0 1-3.92 3.896z" fill="#E1574C" p-id="653"></path><path d="M580.832 481.64a7.224 7.224 0 0 1-9.368-9.512l22.504-53.184c1.496-3.52 5.952-5.336 9.456-3.84l53.184 22.496a7.2 7.2 0 0 1 3.84 9.464 7.2 7.2 0 0 1-9.472 3.848l-46.512-19.68-19.68 46.512a7.168 7.168 0 0 1-3.952 3.896z" fill="#E1574C" p-id="654"></path><path d="M485.72 572.952a7.232 7.232 0 0 1-9.424-3.968l-18.384-45.312a7.232 7.232 0 0 1 13.408-5.416l18.384 45.312a7.208 7.208 0 0 1-3.984 9.384z" fill="#EDF2F2" p-id="655"></path><path d="M535.328 586.672a7.232 7.232 0 0 1-9.424-3.984l-18.368-45.312a7.208 7.208 0 1 1 13.384-5.424l18.392 45.296a7.24 7.24 0 0 1-3.984 9.424z" fill="#EDF2F2" p-id="656"></path><path d="M561.376 542.28a7.232 7.232 0 0 1-9.416-3.984l-18.376-45.304a7.232 7.232 0 1 1 13.4-5.432l18.384 45.312a7.232 7.232 0 0 1-3.992 9.408z" fill="#EDF2F2" p-id="657"></path><path d="M610.984 555.984A7.256 7.256 0 0 1 601.56 552L583.2 506.696a7.24 7.24 0 0 1 13.408-5.432l18.36 45.296a7.232 7.232 0 0 1-3.984 9.424z" fill="#EDF2F2" p-id="658"></path><path d="M637.032 511.592a7.232 7.232 0 0 1-9.408-3.984l-18.376-45.296a7.248 7.248 0 0 1 3.976-9.424 7.264 7.264 0 0 1 9.432 3.984l18.36 45.312a7.192 7.192 0 0 1-3.984 9.408z" fill="#EDF2F2" p-id="659"></path></svg>